# xmcd CD database file
#
# Track frame offsets:
#	182
#	12807
#	27010
#	38777
#	52572
#	64785
#	77587
#	88087
#	103965
#	112480
#	124500
#	136960
#	148175
#	161137
#	172182
#	188155
#
# Disc length: 2677 seconds
#
# Revision: 2
# Processed by: cddbd v1.5.2PL0 Copyright (c) Steve Scherf et al.
# Submitted via: CDex 1.70beta2
#
DISCID=da0a7310
DTITLE=Charley Pride - Legends CD3
DYEAR=2004
DGENRE=Country
TTITLE0=Mountain Of Love
TTITLE1=I Can't Believe That You've Stopped Loving Me
TTITLE2=When I Stop Leaving (I'll Be Gone)
TTITLE3=You Win Again
TTITLE4=Night Games
TTITLE5=You Almost Slipped My Mind
TTITLE6=More And More
TTITLE7=Me And Bobby McGee
TTITLE8=Piroque Joe
TTITLE9=I Don't Think She's in Love Anymore
TTITLE10=More To Me
TTITLE11=Missin' You
TTITLE12=I'll Be Leaving Alone
TTITLE13=Wings Of A Dove
TTITLE14=The Power Of Love
TTITLE15=Crystal Chandeliers
EXTD=YEAR: 2004
EXTT0=
EXTT1=
EXTT2=
EXTT3=
EXTT4=
EXTT5=
EXTT6=
EXTT7=
EXTT8=
EXTT9=
EXTT10=
EXTT11=
EXTT12=
EXTT13=
EXTT14=
EXTT15=
PLAYORDER=
